# xmcd CD database file
#
# Track frame offsets:
#	150
#	11580
#	27543
#	39370
#	57233
#	71265
#	85695
#	100510
#	117588
#	133803
#	149368
#
# Disc length: 2189 seconds
#
# Revision: 2
# Processed by: cddbd v1.5PL3 Copyright (c) Steve Scherf et al.
# Submitted via: CDex 1.50beta10
#
DISCID=90088b0b
DTITLE=The Strokes - Is This It
DYEAR=2001
DGENRE=Rock
TTITLE0=Is This It
TTITLE1=The Modern Age
TTITLE2=Soma
TTITLE3=Barely Legal
TTITLE4=Someday
TTITLE5=Alone, Together
TTITLE6=Last Nite
TTITLE7=Hard To Explain
TTITLE8=New York City Cops
TTITLE9=Trying Your Luck
TTITLE10=Take It Or Leave It
EXTD=YEAR: 2001
EXTT0=
EXTT1=
EXTT2=
EXTT3=
EXTT4=
EXTT5=
EXTT6=
EXTT7=
EXTT8=
EXTT9=
EXTT10=
PLAYORDER=
